<?xml version="1.0" standalone="no"?><!DOCTYPE svg PUBLIC "-//W3C//DTD SVG 1.1//EN" "http://www.w3.org/Graphics/SVG/1.1/DTD/svg11.dtd"><svg t="1587302830557" class="icon" viewBox="0 0 1024 1024" version="1.1" xmlns="http://www.w3.org/2000/svg" p-id="2585" xmlns:xlink="http://www.w3.org/1999/xlink" width="200" height="200"><defs><style type="text/css"></style></defs><path d="M889.610161 413.465514l-162.748986-0.903157c42.267772-169.793614-6.863997-308.699241-74.781443-369.210796-32.333039-28.901041-67.917446-37.932616-97.360381-24.746516-24.565885 11.018522-53.828188 41.003352-53.828189 122.106897 0 157.510672-92.302699 268.418416-116.868583 273.114835l-244.575057-0.541894c-70.265655 0-127.345211 57.079555-127.345211 127.34521v341.754807c0 70.265655 57.079555 127.345211 127.345211 127.345211h592.290703c42.267772 0 146.49215-8.309049 198.875287-84.896807 43.17093-63.040395 81.826072-348.438173 85.980596-380.59058l0.180632-3.612631c0.180632-70.085024-56.898924-127.164579-127.164579-127.164579zM66.291762 882.565532V540.810725c0-40.280826 32.694302-73.155759 73.15576-73.155759h76.226495V955.54066H139.447522c-40.280826 0-73.155759-32.694302-73.15576-72.975128z m819.525137 11.741048c-37.932616 55.27324-120.481214 61.23408-154.078674 61.23408H283.591462V467.654966h92.302699c16.618098 2.709473 34.86188-3.431999 54.00882-18.424414 52.021873-40.461457 125.177633-162.748986 125.177633-308.51861 0-46.241665 11.741048-68.098077 21.67578-72.433233 8.850944-3.973893 23.662727 1.986947 38.835774 15.534309 50.034927 44.615982 104.40501 173.948139 49.312401 347.535015l-11.199154 35.223144 235.543483 1.26442c39.738931 0 72.252602 31.971776 73.155759 71.349444-15.353678 117.410478-49.673664 315.924502-76.587758 355.121539z" p-id="2586" fill="#707070"></path></svg>