<?xml version="1.0" standalone="no"?><!DOCTYPE svg PUBLIC "-//W3C//DTD SVG 1.1//EN" "http://www.w3.org/Graphics/SVG/1.1/DTD/svg11.dtd"><svg t="1587737201467" class="icon" viewBox="0 0 1024 1024" version="1.1" xmlns="http://www.w3.org/2000/svg" p-id="2999" xmlns:xlink="http://www.w3.org/1999/xlink" width="200" height="200"><defs><style type="text/css"></style></defs><path d="M1020.061538 494.276923c-31.507692-63.015385-72.861538-120.123077-124.061538-165.415385L728.615385 494.276923v17.723077c0 120.123077-96.492308 216.615385-216.615385 216.615385h-17.723077l-106.338461 106.338461c39.384615 7.876923 80.738462 13.784615 122.092307 13.784616 222.523077 0 415.507692-129.969231 508.061539-317.046154 7.876923-13.784615 7.876923-25.6 1.96923-37.415385zM955.076923 110.276923l-41.353846-41.353846c-11.815385-11.815385-33.476923-9.846154-47.261539 5.907692l-143.753846 143.753846C657.723077 191.015385 586.830769 177.230769 512 177.230769 289.476923 177.230769 96.492308 307.2 3.938462 494.276923c-5.907692 11.815385-5.907692 25.6 0 35.446154 43.323077 88.615385 108.307692 161.476923 189.046153 216.615385l-118.153846 120.123076c-13.784615 13.784615-15.753846 35.446154-5.907692 47.261539l41.353846 41.353846c11.815385 11.815385 33.476923 9.846154 47.261539-5.907692L949.169231 157.538462c15.753846-13.784615 17.723077-35.446154 5.907692-47.261539zM295.384615 512c0-120.123077 96.492308-216.615385 216.615385-216.615385 39.384615 0 74.830769 9.846154 106.338462 27.569231l-59.076924 59.076923c-15.753846-3.938462-31.507692-7.876923-47.261538-7.876923-76.8 0-137.846154 61.046154-137.846154 137.846154 0 15.753846 3.938462 31.507692 7.876923 47.261538l-59.076923 59.076924C305.230769 586.830769 295.384615 551.384615 295.384615 512z" p-id="3000" fill="#1e1e1e"></path></svg>