<?xml version="1.0" standalone="no"?><!DOCTYPE svg PUBLIC "-//W3C//DTD SVG 1.1//EN" "http://www.w3.org/Graphics/SVG/1.1/DTD/svg11.dtd"><svg t="1587302584978" class="icon" viewBox="0 0 1024 1024" version="1.1" xmlns="http://www.w3.org/2000/svg" p-id="1204" xmlns:xlink="http://www.w3.org/1999/xlink" width="200" height="200"><defs><style type="text/css"></style></defs><path d="M948.496031 604.031752v284.133356c0 34.319986-27.817252 62.137238-62.137238 62.137238H136.918681c-34.319986 0-62.137238-27.817252-62.137238-62.137238V138.724996c0-34.319986 27.817252-62.137238 62.137238-62.137238h142.87952c52.563768 0 52.563768-64.84671 0-64.84671H136.918681C67.014288 11.741048 9.934733 68.639972 9.934733 138.724996v749.259481c0 70.085024 56.898924 126.983948 126.983948 126.983948h749.259481c70.085024 0 126.983948-56.898924 126.983948-126.983948V604.031752c0.180632-43.17093-64.666079-43.17093-64.666079 0z" p-id="1205" fill="#707070"></path><path d="M422.316458 707.714235V320.801552c0-34.319986 27.817252-62.137238 62.137238-62.137237h429.722349l-124.997001 124.997001c-10.295996 10.295996-10.295996 27.275357 0 37.571353 10.295996 10.295996 27.275357 10.295996 37.571353 0l175.935085-175.935086c2.167578-1.806315 3.793262-3.793262 5.238314-5.960839 4.154525-5.599577 5.96084-12.282942 5.238314-18.966308 0.903158-7.767155-1.445052-15.895572-7.405892-21.856412l-1.445052-1.445052-0.541895-0.541895-177.018874-177.018874c-10.295996-10.295996-27.275357-10.295996-37.571353 0-6.502734 6.502734-8.850944 15.534309-7.22526 23.843358 0.903158 5.057682 3.431999 9.934733 7.22526 13.908626l136.557417 136.557418H484.453696c-70.085024 0-126.983948 56.898924-126.983948 126.983947v386.912683c0 42.990298 64.84671 42.990298 64.84671 0z" p-id="1206" fill="#707070"></path></svg>